<?xml version="1.0" standalone="no"?>
<!DOCTYPE svg PUBLIC "-//W3C//DTD SVG 20010904//EN"
 "http://www.w3.org/TR/2001/REC-SVG-20010904/DTD/svg10.dtd">
<svg version="1.0" xmlns="http://www.w3.org/2000/svg"
 width="512.000000pt" height="512.000000pt" viewBox="0 0 512.000000 512.000000"
 preserveAspectRatio="xMidYMid meet">
<metadata>
Created by potrace 1.14, written by Peter Selinger 2001-2017
</metadata>
<g transform="translate(0.000000,512.000000) scale(0.100000,-0.100000)"
fill="#000000" stroke="none">
<path d="M0 2560 l0 -2560 2560 0 2560 0 0 2560 0 2560 -2560 0 -2560 0 0
-2560z m2751 1209 c120 -15 310 -73 410 -125 l86 -45 116 3 c63 2 119 -1 123
-5 5 -5 9 -63 9 -130 l0 -122 46 -65 c84 -118 144 -267 179 -446 25 -125 29
-343 10 -485 -29 -212 -110 -434 -202 -550 -26 -32 -29 -46 -35 -137 -7 -118
1 -112 -141 -112 -86 0 -97 -2 -135 -29 -186 -127 -400 -178 -707 -168 -158 5
-187 9 -307 41 -149 40 -212 66 -298 122 -59 38 -62 39 -175 44 l-115 5 -5
110 c-3 61 -9 117 -14 125 -6 8 -26 38 -47 65 -49 67 -80 131 -122 251 -54
155 -62 215 -61 439 0 217 14 317 61 455 36 107 108 250 148 297 l34 40 3 129
3 129 60 3 c33 1 87 -1 120 -6 57 -8 64 -6 137 30 136 68 317 126 443 141 68
9 298 6 376 -4z"/>
<path d="M1983 3240 c-64 -15 -63 -10 -63 -266 0 -232 0 -233 24 -261 l24 -28
159 1 c103 0 166 5 181 13 22 12 22 13 22 259 0 136 -4 253 -9 261 -5 7 -28
17 -52 22 -54 10 -242 10 -286 -1z"/>
<path d="M2854 3243 c-106 -6 -102 6 -105 -276 -3 -306 -20 -283 201 -280 122
2 166 6 190 18 l30 16 0 242 c0 133 -4 249 -10 257 -5 9 -35 17 -82 21 -73 8
-93 8 -224 2z"/>
<path d="M1982 2663 c-78 -4 -83 -5 -92 -29 -11 -28 -13 -136 -4 -171 6 -23 9
-23 164 -23 86 0 185 3 219 6 l61 7 0 97 c0 80 -3 99 -16 104 -21 8 -227 13
-332 9z"/>
<path d="M2878 2663 l-138 -4 0 -94 c0 -72 4 -97 16 -109 13 -14 47 -16 214
-16 109 0 205 3 214 6 13 5 16 24 16 104 0 85 -2 99 -17 104 -31 9 -164 13
-305 9z"/>
<path d="M2855 2422 c-110 -5 -105 8 -105 -282 0 -223 2 -248 18 -263 14 -13
49 -16 190 -19 229 -4 212 -24 212 247 0 231 -6 292 -29 304 -18 10 -182 17
-286 13z"/>
<path d="M1949 2401 c-24 -19 -24 -20 -27 -265 l-3 -245 24 -15 c18 -13 57
-16 184 -17 102 0 169 3 182 10 20 11 21 18 21 269 0 187 -3 261 -12 270 -8 8
-62 12 -179 12 -149 0 -169 -2 -190 -19z"/>
</g>
</svg>
